<svg width="686" height="362" viewBox="0 0 686 362" fill="none" xmlns="http://www.w3.org/2000/svg">
<path fill-rule="evenodd" clip-rule="evenodd" d="M149.07 319.27L167.072 310.272V286.192H136.256V154H118.416L100.42 163L19.6936 294.738C18.9193 295.748 18.5737 296.733 18.4169 297.255C18.1967 297.989 18.1114 298.642 18.0709 299.047C17.9986 299.771 17.9996 300.524 18.0001 300.891L18.0002 300.968L18.0001 300.997C17.9994 301.202 17.9967 301.931 18.1721 302.809C18.2065 302.98 18.2453 303.148 18.2882 303.312V310.272H97.4882L118.25 361.299L136.256 352.319V310.272L149.07 319.27ZM54.5553 286.192L97.4882 224.72V286.192H54.5553Z" fill="#C1604D"/>
<path fill-rule="evenodd" clip-rule="evenodd" d="M314.552 290.472C329.742 275.928 336.871 256.379 336.871 232.712C336.871 209.015 329.724 189.766 314.552 175.24C299.489 160.818 280.075 154 257.007 154C242.437 154 229.326 156.72 217.847 162.357C216.832 162.855 215.83 163.376 214.841 163.921L201.5 170.57L202.994 172.064C201.792 173.078 200.614 174.137 199.462 175.24C184.29 189.766 177.143 209.015 177.143 232.712C177.143 256.379 184.271 275.928 199.462 290.472C214.524 304.894 233.938 311.712 257.007 311.712C264.67 311.712 271.929 310.959 278.76 309.426L279 311.94L295.611 303.625C302.523 300.302 308.849 295.932 314.552 290.472ZM257.007 292.24C248.206 292.24 241.081 289.232 235.22 283.394C228.782 276.684 224.223 269.044 221.686 260.726C219.267 251.826 217.927 242.397 217.927 232.712C217.927 212.916 222.328 195.498 235.173 182.654L235.221 182.605L235.269 182.556C241.111 176.48 248.2 173.472 257.007 173.472C270.803 173.472 280.284 180.961 286.678 192.419C293.207 204.119 296.087 219.412 296.087 232.712C296.087 246.164 293.204 261.53 286.674 273.264C280.28 284.754 270.8 292.24 257.007 292.24Z" fill="#C1604D"/>
<path fill-rule="evenodd" clip-rule="evenodd" d="M479.998 319.27L498 310.272V286.192H467.184V154H449.344L431.348 163L350.621 294.738C349.847 295.749 349.501 296.733 349.345 297.256C349.124 297.99 349.039 298.642 348.999 299.047C348.926 299.771 348.927 300.525 348.928 300.891L348.928 300.968L348.928 300.997C348.927 301.203 348.925 301.932 349.1 302.809C349.134 302.98 349.173 303.148 349.216 303.312V310.272H428.416L449.178 361.3L467.184 352.32V310.272L479.998 319.27ZM385.483 286.192L428.416 224.72V286.192H385.483Z" fill="#C1604D"/>
<path fill-rule="evenodd" clip-rule="evenodd" d="M118.256 319.272H149.072V295.192H118.256V163H100.416L1.6936 303.738C0.919311 304.749 0.5737 305.733 0.416931 306.256C0.196716 306.99 0.111419 307.642 0.0709226 308.047C-0.00146511 308.771 -0.000396995 309.525 0.000121804 309.891L0.000182839 309.968L0.000121804 309.997C-0.000610618 310.202 -0.00329617 310.932 0.172119 311.809C0.206451 311.98 0.245331 312.148 0.288208 312.312V319.272H79.4882V361.32H118.256V319.272ZM36.5553 295.192L79.4882 233.72V295.192H36.5553Z" fill="#FAF4ED"/>
<path fill-rule="evenodd" clip-rule="evenodd" d="M296.552 299.472C311.742 284.928 318.871 265.379 318.871 241.712C318.871 218.015 311.724 198.766 296.552 184.24C281.489 169.818 262.075 163 239.007 163C215.938 163 196.524 169.818 181.462 184.24C166.29 198.767 159.143 218.015 159.143 241.712C159.143 265.379 166.271 284.928 181.462 299.472C196.524 313.894 215.938 320.712 239.007 320.712C262.075 320.712 281.489 313.894 296.552 299.472ZM239.007 301.24C230.206 301.24 223.081 298.232 217.22 292.394C210.782 285.684 206.223 278.044 203.686 269.726C201.267 260.826 199.927 251.398 199.927 241.712C199.927 221.916 204.328 204.499 217.173 191.654L217.221 191.605L217.269 191.556C223.111 185.48 230.2 182.472 239.007 182.472C252.803 182.472 262.284 189.961 268.678 201.419C275.207 213.119 278.087 228.412 278.087 241.712C278.087 255.164 275.204 270.53 268.674 282.264C262.28 293.754 252.8 301.24 239.007 301.24Z" fill="#FAF4ED"/>
<path fill-rule="evenodd" clip-rule="evenodd" d="M448.725 319.272H479.541V295.192H448.725V163H430.885L332.162 303.738C331.388 304.749 331.043 305.733 330.886 306.256C330.666 306.99 330.58 307.642 330.54 308.047C330.468 308.77 330.469 309.523 330.469 309.89V309.891L330.469 309.968L330.469 309.997C330.468 310.202 330.466 310.932 330.641 311.809C330.675 311.98 330.714 312.148 330.757 312.312V319.272H409.957V361.32H448.725V319.272ZM367.024 295.192L409.957 233.72V295.192H367.024Z" fill="#FAF4ED"/>
<path d="M511 227.301L513.044 228.602L511.743 230.646L512.301 231L513.601 228.956L515.645 230.257L516 229.7L513.956 228.399L515.257 226.355L514.699 226L513.399 228.044L511.355 226.744L511 227.301Z" fill="#C1604D"/>
<path d="M359 79.301L361.044 80.602L359.743 82.646L360.301 83L361.601 80.956L363.645 82.257L364 81.7L361.956 80.399L363.257 78.355L362.699 78L361.399 80.044L359.355 78.744L359 79.301Z" fill="#C1604D"/>
<path d="M605 97.301L607.044 98.602L605.743 100.646L606.301 101L607.601 98.956L609.645 100.257L610 99.7L607.956 98.399L609.257 96.355L608.699 96L607.399 98.044L605.355 96.744L605 97.301Z" fill="#C1604D"/>
<path d="M421 1.30099L423.044 2.60199L421.743 4.646L422.301 5L423.601 2.95599L425.645 4.25699L426 3.70001L423.956 2.39902L425.257 0.355011L424.699 -1.13734e-07L423.399 2.04401L421.355 0.743988L421 1.30099Z" fill="#FCFBF9"/>
<path d="M420.822 97.801L423.076 98.6881L422.189 100.943L422.805 101.184L423.691 98.9293L425.945 99.8164L426.187 99.2019L423.933 98.3148L424.82 96.0601L424.204 95.8181L423.318 98.0726L421.064 97.1865L420.822 97.801Z" fill="#FCFBF9"/>
<path d="M592 38.301L594.044 39.602L592.743 41.646L593.301 42L594.601 39.956L596.645 41.257L597 40.7L594.956 39.399L596.257 37.355L595.699 37L594.399 39.044L592.355 37.744L592 38.301Z" fill="#C1604D"/>
<path d="M180 87.301L182.044 88.602L180.743 90.646L181.301 91L182.601 88.956L184.645 90.257L185 89.7L182.956 88.399L184.257 86.355L183.699 86L182.399 88.044L180.355 86.744L180 87.301Z" fill="#FCFBF9"/>
<path d="M634 208.301L636.044 209.602L634.743 211.646L635.301 212L636.601 209.956L638.645 211.257L639 210.7L636.956 209.399L638.257 207.355L637.699 207L636.399 209.044L634.355 207.744L634 208.301Z" fill="#C1604D"/>
<path d="M463 185.822L465.862 187.642L464.041 190.504L464.821 191L466.642 188.139L469.503 189.96L470 189.179L467.138 187.359L468.959 184.497L468.179 184L466.358 186.862L463.497 185.041L463 185.822Z" fill="#FCFBF9"/>
<path d="M566 148C564.343 148 563 149.344 563 151C563 152.657 564.343 154 566 154C567.657 154 569 152.657 569 151C569 149.344 567.657 148 566 148Z" fill="#FCFBF9"/>
<path d="M683 148C681.343 148 680 149.344 680 151C680 152.657 681.343 154 683 154C684.657 154 686 152.657 686 151C686 149.344 684.657 148 683 148Z" fill="#C1604D"/>
<path d="M479 258C477.343 258 476 259.344 476 261C476 262.657 477.343 264 479 264C480.657 264 482 262.657 482 261C482 259.344 480.657 258 479 258Z" fill="#C1604D"/>
<path d="M507 75.0005C505.343 75.0005 504 76.3436 504 78.0005C504 79.6573 505.343 81.0005 507 81.0005C508.657 81.0005 510 79.6573 510 78.0005C510 76.3436 508.657 75.0005 507 75.0005Z" fill="#C1604D"/>
<path d="M509 139C507.895 139 507 139.896 507 141C507 142.105 507.895 143 509 143C510.105 143 511 142.105 511 141C511 139.896 510.105 139 509 139Z" fill="#C1604D"/>
<path d="M304 51.0005C302.895 51.0005 302 51.8959 302 53.0005C302 54.1051 302.895 55.0005 304 55.0005C305.105 55.0005 306 54.1051 306 53.0005C306 51.8959 305.105 51.0005 304 51.0005Z" fill="#DB6D57"/>
<path d="M610 160C608.895 160 608 160.896 608 162C608 163.105 608.895 164 610 164C611.105 164 612 163.105 612 162C612 160.896 611.105 160 610 160Z" fill="#DB6D57"/>
<path d="M484 337C482.895 337 482 337.895 482 339C482 340.105 482.895 341 484 341C485.105 341 486 340.105 486 339C486 337.895 485.105 337 484 337Z" fill="#DB6D57"/>
<path d="M567 229C565.895 229 565 229.896 565 231C565 232.105 565.895 233 567 233C568.105 233 569 232.105 569 231C569 229.896 568.105 229 567 229Z" fill="#C1604D"/>
<path d="M542 296C540.895 296 540 296.896 540 298C540 299.105 540.895 300 542 300C543.105 300 544 299.105 544 298C544 296.896 543.105 296 542 296Z" fill="#FCFBF9"/>
<path d="M243 115C241.343 115 240 116.344 240 118C240 119.657 241.343 121 243 121C244.657 121 246 119.657 246 118C246 116.344 244.657 115 243 115Z" fill="#C1604D"/>
<path d="M493 26.0005C487.477 26.0005 483 30.4776 483 36.0005C483 41.5233 487.477 46.0005 493 46.0005C498.523 46.0005 503 41.5233 503 36.0005C503 30.4776 498.523 26.0005 493 26.0005Z" fill="#C1604D"/>
<path d="M372 143C373.105 143 374 143.896 374 145C374 146.105 373.105 147 372 147C370.895 147 370 146.105 370 145C370 143.896 370.895 143 372 143Z" fill="#FCFBF9"/>
</svg>
