<svg width="175" height="162" viewBox="0 0 175 162" fill="none" xmlns="http://www.w3.org/2000/svg">
<path d="M167.394 80.4139C167.394 80.4139 173.332 16.4651 98.0515 9.62297C22.7707 2.78088 13.6481 46.2652 13.6481 46.2652C13.6481 46.2652 -5.89996 92.091 32.645 120.201C34.6507 121.664 28.145 145.858 28.145 145.858C39.1454 136.767 57.645 132.664 57.645 132.664C62.3062 134.226 67.3906 135.62 72.9338 136.815C162.6 156.145 167.394 80.4139 167.394 80.4139Z" fill="#C1604D"/>
<path d="M156.671 80.3419C156.671 80.3419 161.812 24.9696 96.6279 19.0451C31.4433 13.1206 23.5443 50.7731 23.5443 50.7731C23.5443 50.7731 6.61784 90.453 39.9934 114.793C41.7301 116.06 37.4517 133.78 37.4517 133.78C44.554 129.179 58.2849 123.837 58.2849 123.837C62.321 125.19 70.0791 128.144 74.8789 129.179C152.519 145.916 156.671 80.3419 156.671 80.3419Z" stroke="#FCFBF9" stroke-miterlimit="10"/>
<path d="M59.6161 73.4657C59.2419 75.0419 58.8974 76.1812 58.6011 76.9618C58.4663 77.3738 58.3214 77.6724 58.2098 77.8309C58.2015 77.866 58.1498 77.9277 58.0898 78.0245L57.9147 77.9829L57.8648 78.193L62.033 79.1826L62.0828 78.9724L61.9077 78.9308C61.916 78.8958 61.916 78.8958 61.8893 78.8525L61.8525 78.6957C61.8241 78.504 61.8288 78.1721 61.8936 77.7435C61.9798 76.9129 62.2191 75.7487 62.5933 74.1725L64.1732 67.5175C65.0879 63.6646 64.0741 61.3889 61.1669 60.6987C59.6608 60.3411 57.3228 60.5261 54.1964 61.2269L56.4249 51.8398L55.5492 51.632L52.8361 51.8389L52.6793 51.8757L52.9162 51.9689C53.023 52.1423 53.0515 52.334 53.0016 52.5442C53.0117 52.6576 52.9701 52.8327 52.9202 53.0429C52.8305 53.5766 52.5745 54.8108 52.1338 56.6672L48.7578 70.888C48.3837 72.4642 48.0742 73.6118 47.7779 74.3924C47.6431 74.8044 47.4982 75.103 47.3866 75.2615L47.2833 75.385L47.2316 75.4467L47.0915 75.4135L47.0416 75.6236L51.1747 76.6048L51.2246 76.3947L51.0495 76.3531C51.0394 76.2397 51.021 76.1613 51.0293 76.1263C50.9421 75.4026 51.1863 73.9065 51.7351 71.5948L54.0717 61.7523C54.08 61.7173 54.1584 61.6989 54.2634 61.7239C56.0261 61.6243 57.5554 61.7284 58.8514 62.036C61.0581 62.5599 61.8113 64.2187 61.1378 67.0559L59.6161 73.4657Z" fill="#FCFBF9"/>
<path d="M79.6896 81.3762C79.7145 81.2711 79.616 81.0627 79.4023 80.716C78.4387 81.1902 76.8494 81.1829 74.6778 80.6674C72.7513 80.2101 71.4198 79.1169 70.7616 77.3697C70.1034 75.6224 70.0104 73.6763 70.501 71.6097C70.6257 71.0843 70.7255 70.664 70.827 70.3921L81.7203 72.9781L81.7286 72.9431C82.7015 68.845 81.0365 65.4157 77.1136 64.4844C74.5916 63.8857 72.4573 64.304 70.7022 65.7744C68.9471 67.2448 67.7578 69.2935 67.1258 71.9555C66.5687 74.3022 66.6985 76.4051 67.5586 78.2373C68.4186 80.0695 69.952 81.2475 72.1937 81.7797C74.7506 82.3867 76.9769 82.3602 78.8726 81.7002L79.6896 81.3762ZM71.0384 69.8133C71.5545 68.4188 72.3525 67.2392 73.3625 66.2579C74.3724 65.2767 75.5296 64.9224 76.7905 65.2217C78.8921 65.7206 79.9825 67.8295 79.4753 69.9661C79.3173 70.6316 78.964 71.0288 78.4237 71.1225L78.3454 71.1409C78.3454 71.1409 78.3454 71.1409 78.3103 71.1326L71.0384 69.8133Z" fill="#FCFBF9"/>
<path d="M83.1146 83.8913L83.0279 83.9447L82.8878 83.9114L82.8379 84.1216L87.006 85.1111L87.0559 84.901L86.9158 84.8677C86.8891 84.8244 86.8707 84.746 86.879 84.711C86.8506 84.5192 86.8387 84.2574 86.8952 83.8638C86.9813 83.0332 87.2106 81.7556 87.6014 80.1094L92.2912 60.3544L91.4156 60.1465L88.5106 60.3819L88.6341 60.4853C88.7309 60.5452 88.7677 60.702 88.8229 60.9371C88.8246 61.0855 88.7914 61.2256 88.7664 61.3307L88.7765 61.4441C88.6868 61.9778 88.4225 63.2471 87.9651 65.1735L84.5892 79.3943C84.0237 81.7761 83.5611 83.2573 83.1662 83.8295L83.1146 83.8913Z" fill="#FCFBF9"/>
<path d="M92.2133 86.0513L92.1266 86.1047L91.9865 86.0715L91.9366 86.2816L96.1047 87.2711L96.1546 87.061L96.0145 87.0277C95.9878 86.9844 95.9694 86.906 95.9777 86.871C95.9492 86.6792 95.9374 86.4174 95.9938 86.0238C96.08 85.1932 96.3093 83.9156 96.7001 82.2694L101.39 62.5144L100.514 62.3066L97.6093 62.5419L97.7328 62.6453C97.8296 62.7052 97.8664 62.862 97.9215 63.0971C97.9233 63.2455 97.8901 63.3856 97.8651 63.4907L97.8752 63.6041C97.7855 64.1378 97.5212 65.4071 97.0638 67.3335L93.6878 81.5543C93.1224 83.9361 92.6598 85.4173 92.2649 85.9896L92.2133 86.0513Z" fill="#FCFBF9"/>
<path d="M108.384 90.3713C110.976 90.9866 113.269 90.6799 115.219 89.4779C117.17 88.2759 118.483 86.3305 119.115 83.6685C119.747 81.0065 119.44 78.7136 118.238 76.7633C117.036 74.8129 115.126 73.5084 112.534 72.893C109.907 72.2694 107.614 72.5761 105.628 73.7698C103.678 74.9718 102.373 76.8821 101.741 79.5441C101.101 82.2412 101.4 84.5691 102.602 86.5194C103.839 88.4781 105.757 89.7476 108.384 90.3713ZM115.857 82.8952C115.258 85.4171 114.168 87.6742 112.019 89.0881C110.962 89.7992 109.803 90.0051 108.542 89.7058C107.246 89.3981 106.304 88.6933 105.644 87.5747C104.985 86.4562 104.63 85.299 104.59 84.0683C104.549 82.8376 104.7 81.5784 104.999 80.3175C105.589 77.8306 106.68 75.5735 108.829 74.1596C109.921 73.4568 111.08 73.2509 112.376 73.5585C113.637 73.8579 114.579 74.5627 115.204 75.6729C115.863 76.7915 116.174 77.9754 116.215 79.2061C116.256 80.4368 116.148 81.6693 115.857 82.8952Z" fill="#FCFBF9"/>
<path d="M124.529 87.6178C126.828 81.2075 128.42 76.3685 129.237 73.0843C129.536 71.8234 129.091 71.0515 127.9 70.7688C126.744 70.4944 125.999 70.9835 125.699 72.2445C124.969 75.4753 124.322 80.5387 123.688 87.4183L123.706 87.4966L124.512 87.6879L124.529 87.6178ZM124.208 93.6467C125.171 93.1724 125.52 91.7013 124.873 90.8445C124.295 90.0044 122.824 89.6552 121.931 90.1461C121.037 90.6369 120.688 92.1081 121.265 92.9482C121.859 93.7183 123.331 94.0675 124.208 93.6467Z" fill="#FCFBF9"/>
</svg>
