<svg width="185" height="181" viewBox="0 0 185 181" fill="none" xmlns="http://www.w3.org/2000/svg">
<path d="M22.8637 105.855C22.8637 105.855 4.57514 48.9029 68.3102 27.9444C132.045 6.98587 148.881 44.7166 148.881 44.7166C148.881 44.7166 175.22 82.5338 147.647 115.627C146.212 117.349 156.817 138.062 156.817 138.062C145.429 131.954 128.577 131.848 128.577 131.848C124.865 134.18 120.752 136.442 116.201 138.614C42.5858 173.738 22.8637 105.855 22.8637 105.855Z" fill="#CF733A"/>
<path d="M32.128 103.69C32.128 103.69 16.2922 54.3759 71.4795 36.2282C126.667 18.0805 141.245 50.751 141.245 50.751C141.245 50.751 164.051 83.4964 140.176 112.151C138.934 113.642 146.28 128.908 146.28 128.908C139.188 126.117 126.208 123.951 126.208 123.951C122.994 125.971 116.888 130.175 112.947 132.055C49.2051 162.468 32.128 103.69 32.128 103.69Z" stroke="#FCFBF9" stroke-miterlimit="10"/>
<path d="M76.5442 100.579C77.4043 101.952 77.974 102.997 78.322 103.756C78.5209 104.141 78.6319 104.454 78.6664 104.644C78.6855 104.675 78.6933 104.755 78.7201 104.866L78.5675 104.961L78.6822 105.144L82.3126 102.87L82.198 102.687L82.0454 102.782C82.0263 102.752 82.0263 102.752 81.9767 102.74L81.8392 102.657C81.6826 102.542 81.4496 102.306 81.1898 101.959C80.6587 101.315 79.9974 100.327 79.1374 98.9541L75.506 93.1577C73.4036 89.8018 71.0711 88.9266 68.539 90.513C67.2272 91.3348 65.718 93.1299 64.0227 95.8487L58.9006 87.6727L58.1379 88.1505L56.381 90.2283L56.2971 90.3657L56.5298 90.2624C56.7283 90.308 56.8849 90.4223 56.9995 90.6054C57.0874 90.6778 57.183 90.8303 57.2976 91.0134C57.6148 91.4519 58.3143 92.5005 59.3272 94.1174L67.0869 106.504C67.9469 107.876 68.5471 108.902 68.8952 109.661C69.094 110.046 69.205 110.359 69.2396 110.55L69.255 110.71L69.2627 110.79L69.1407 110.867L69.2554 111.05L72.8553 108.795L72.7406 108.612L72.5881 108.707C72.5002 108.635 72.4315 108.593 72.4124 108.562C71.8357 108.116 70.9414 106.892 69.68 104.879L64.3094 96.3063C64.2903 96.2758 64.3322 96.2071 64.4237 96.1498C65.59 94.8244 66.7376 93.8081 67.8663 93.1009C69.7883 91.8968 71.4985 92.5247 73.0467 94.9958L76.5442 100.579Z" fill="#FCFBF9"/>
<path d="M96.2681 91.8329C96.2108 91.7414 95.9932 91.6653 95.5963 91.5742C95.2577 92.5934 94.137 93.7203 92.2455 94.9053C90.5676 95.9565 88.8544 96.1376 87.1479 95.3801C85.4413 94.6225 83.9899 93.3228 82.8622 91.5228C82.5755 91.0652 82.3462 90.6991 82.2238 90.436L91.7117 84.492L91.6926 84.4615C89.4564 80.8921 85.8452 79.671 82.4283 81.8116C80.2318 83.1877 79.0317 85.0016 78.8471 87.2837C78.6626 89.5659 79.287 91.851 80.7395 94.1696C82.0201 96.2136 83.609 97.5971 85.5177 98.2705C87.4264 98.9439 89.3418 98.6786 91.2943 97.4554C93.5213 96.0602 95.0651 94.4558 95.9256 92.6423L96.2681 91.8329ZM81.9599 89.8791C81.3288 88.5327 81.0488 87.1364 81.0587 85.7283C81.0687 84.3202 81.6285 83.2473 82.7268 82.5592C84.5572 81.4125 86.8247 82.116 87.9905 83.977C88.3537 84.5566 88.3886 85.087 88.0761 85.5376L88.0342 85.6064C88.0342 85.6064 88.0342 85.6064 88.0037 85.6255L81.9599 89.8791Z" fill="#FCFBF9"/>
<path d="M90.4435 77.47C91.0275 77.6563 92.1082 78.2963 93.6357 79.3784L105.654 88.1195L105.88 89.2946C106.03 90.008 106.153 90.6108 106.218 91.1221C106.399 92.156 106.503 93.7472 106.249 94.6289C106.115 95.0946 105.917 95.3887 105.723 95.553C104.288 95.772 103.373 96.0058 102.976 96.2542C102.122 96.7894 101.905 97.3925 102.306 98.0332C102.899 98.9789 104.196 98.6761 105.264 98.0071C107.796 96.4208 107.95 93.8181 107.213 90.2014C107.167 90.0602 107.029 89.2972 106.779 87.8817L104.131 73.4829C103.682 71.003 103.554 69.5111 103.741 68.9271L103.855 68.7705L103.76 68.618L101.624 69.9558L101.72 70.1084L101.861 70.0624C101.929 70.1043 101.949 70.1348 101.937 70.1844C102.339 70.8251 102.764 72.3854 103.213 74.8653L105.154 84.2697L97.5384 78.4202C95.3692 76.7206 94.1507 75.6572 93.8831 75.2301L93.8258 75.1386L93.7343 75.1959L93.9096 75.0011L93.8141 74.8486L89.9091 77.295L90.0046 77.4475L90.1954 77.413L90.2946 77.4358L90.4435 77.47Z" fill="#FCFBF9"/>
<path d="M114.668 75.2504C111.716 69.1136 109.387 64.5827 107.621 61.6959C106.933 60.5976 106.07 60.3734 105.033 61.0232C104.026 61.6539 103.852 62.528 104.54 63.6262C106.328 66.4138 109.481 70.4287 113.936 75.7091L114.005 75.751L114.706 75.3115L114.668 75.2504ZM118.737 79.7108C119.075 78.6916 118.273 77.4103 117.208 77.2702C116.204 77.0919 114.923 77.8947 114.645 78.8757C114.368 79.8567 115.171 81.138 116.174 81.3163C117.14 81.4335 118.421 80.6308 118.737 79.7108Z" fill="#FCFBF9"/>
</svg>
