<svg width="24" height="24" viewBox="0 0 24 24" fill="none" xmlns="http://www.w3.org/2000/svg">
<path fill-rule="evenodd" clip-rule="evenodd" d="M3.9002 3.9002C3.9002 4.72862 4.57177 5.4002 5.4002 5.4002C6.22862 5.4002 6.9002 4.72862 6.9002 3.9002C6.9002 3.07177 6.22862 2.4002 5.4002 2.4002C4.57177 2.4002 3.9002 3.07177 3.9002 3.9002ZM5.4002 1.2002C3.90903 1.2002 2.7002 2.40903 2.7002 3.9002C2.7002 5.39136 3.90903 6.6002 5.4002 6.6002C6.89136 6.6002 8.1002 5.39136 8.1002 3.9002C8.1002 2.40903 6.89136 1.2002 5.4002 1.2002ZM4.2 8.40024V18.0002H6.6V8.40024H4.2ZM3.6 7.20024C3.26863 7.20024 3 7.46887 3 7.80024V18.6002C3 18.9316 3.26863 19.2002 3.6 19.2002H7.2C7.53137 19.2002 7.8 18.9316 7.8 18.6002V7.80024C7.8 7.46887 7.53137 7.20024 7.2 7.20024H3.6ZM13.8 8.07986C13.8 8.07986 14.4 7.20024 16.2 7.20024C18.6 7.20024 21 8.37307 21 12.478V18.6138C21 18.9657 20.76 19.2002 20.4 19.2002H16.8C16.44 19.2002 16.2 18.9657 16.2 18.6138V12.478C16.2 11.7743 15.72 11.3051 15 11.3051C14.28 11.3051 13.8 11.7743 13.8 12.478V18.6138C13.8 18.9657 13.56 19.2002 13.2 19.2002H9.6C9.24 19.2002 9 18.9657 9 18.6138V7.78666C9 7.43481 9.24 7.20024 9.6 7.20024H13.2C13.5314 7.20024 13.8 7.46887 13.8 7.80024V8.07986ZM17.4 18.0274H19.8V12.478C19.8 8.95948 17.4 8.37307 16.2 8.37307C13.8 8.37307 12.6 10.1323 12.6 10.1323V8.37307H10.2V18.0274H12.6V12.478C12.6 11.3051 13.68 10.1323 15 10.1323C16.32 10.1323 17.4 11.3051 17.4 12.478V18.0274Z" fill="#FAF4ED"/>
</svg>
