<svg width="20" height="20" viewBox="0 0 20 20" fill="none" xmlns="http://www.w3.org/2000/svg">
<path fill-rule="evenodd" clip-rule="evenodd" d="M3.25 3.25C3.25 3.94036 3.80964 4.5 4.5 4.5C5.19036 4.5 5.75 3.94036 5.75 3.25C5.75 2.55964 5.19036 2 4.5 2C3.80964 2 3.25 2.55964 3.25 3.25ZM4.5 1C3.25736 1 2.25 2.00736 2.25 3.25C2.25 4.49264 3.25736 5.5 4.5 5.5C5.74264 5.5 6.75 4.49264 6.75 3.25C6.75 2.00736 5.74264 1 4.5 1ZM3.5 7V15H5.5V7H3.5ZM3 6C2.72386 6 2.5 6.22386 2.5 6.5V15.5C2.5 15.7761 2.72386 16 3 16H6C6.27614 16 6.5 15.7761 6.5 15.5V6.5C6.5 6.22386 6.27614 6 6 6H3ZM11.5 6.73302C11.5 6.73302 12 6 13.5 6C15.5 6 17.5 6.97735 17.5 10.3981V15.5113C17.5 15.8045 17.3 16 17 16H14C13.7 16 13.5 15.8045 13.5 15.5113V10.3981C13.5 9.81168 13.1 9.42074 12.5 9.42074C11.9 9.42074 11.5 9.81168 11.5 10.3981V15.5113C11.5 15.8045 11.3 16 11 16H8C7.7 16 7.5 15.8045 7.5 15.5113V6.48868C7.5 6.19547 7.7 6 8 6H11C11.2761 6 11.5 6.22386 11.5 6.5V6.73302ZM14.5 15.0226H16.5V10.3981C16.5 7.46603 14.5 6.97735 13.5 6.97735C11.5 6.97735 10.5 8.44339 10.5 8.44339V6.97735H8.5V15.0226H10.5V10.3981C10.5 9.42074 11.4 8.44339 12.5 8.44339C13.6 8.44339 14.5 9.42074 14.5 10.3981V15.0226Z" fill="#4F4F4F"/>
</svg>
