<svg width="24" height="24" viewBox="0 0 24 24" fill="none" xmlns="http://www.w3.org/2000/svg">
<path fill-rule="evenodd" clip-rule="evenodd" d="M7.2001 4.8001H16.8001C18.1256 4.8001 19.2001 5.87462 19.2001 7.2001V16.8001C19.2001 18.1256 18.1256 19.2001 16.8001 19.2001H7.2001C5.87462 19.2001 4.8001 18.1256 4.8001 16.8001V7.2001C4.8001 5.87462 5.87462 4.8001 7.2001 4.8001ZM3.6001 7.2001C3.6001 5.21188 5.21187 3.6001 7.2001 3.6001H16.8001C18.7883 3.6001 20.4001 5.21187 20.4001 7.2001V16.8001C20.4001 18.7883 18.7883 20.4001 16.8001 20.4001H7.2001C5.21188 20.4001 3.6001 18.7883 3.6001 16.8001V7.2001ZM16.8 8.77571C17.4627 8.77571 18 8.23845 18 7.57571C18 6.91297 17.4627 6.37571 16.8 6.37571C16.1373 6.37571 15.6 6.91297 15.6 7.57571C15.6 8.23845 16.1373 8.77571 16.8 8.77571ZM12 9.00012C10.3431 9.00012 9 10.3433 9 12.0001C9 13.657 10.3431 15.0001 12 15.0001C13.6569 15.0001 15 13.657 15 12.0001C15 10.3433 13.6569 9.00012 12 9.00012ZM7.8 12.0001C7.8 9.68053 9.6804 7.80012 12 7.80012C14.3196 7.80012 16.2 9.68053 16.2 12.0001C16.2 14.3197 14.3196 16.2001 12 16.2001C9.6804 16.2001 7.8 14.3197 7.8 12.0001Z" fill="#FAF4ED"/>
</svg>
