<svg width="286" height="250" viewBox="0 0 286 250" fill="none" xmlns="http://www.w3.org/2000/svg">
<path d="M4.25429 0V0.506828H4.59463C5.956 0.506828 6.46652 6.41977 6.29635 18.2457L3.74377 85.6533C3.23326 100.858 2.04206 108.46 0.340343 108.46H0V108.967H10.7208V108.46H10.2103C7.82789 108.46 6.97703 100.013 7.48755 83.2882L10.0401 16.3873L51.7321 109.812H54.7952L94.7855 10.6433L97.5083 85.6533C97.8486 100.858 97.3381 108.46 95.8066 108.46H95.4662V108.967H113.164V108.46H112.824C111.292 108.46 110.101 100.858 109.25 85.6533L106.187 17.0631C106.017 6.0819 106.527 0.506828 107.889 0.506828H108.229V0H94.4452L57.3478 95.1141L14.8049 0H4.25429Z" fill="#C1604D"/>
<path d="M185.303 98.4929C182.24 101.196 175.093 102.547 163.861 102.547C153.651 102.547 145.823 98.4929 140.208 90.3837C134.592 82.2745 132.55 71.8001 133.741 59.1295H186.664C186.664 49.162 183.942 41.0528 178.496 34.9709C173.221 28.7201 166.074 25.6791 157.225 25.6791C146.163 25.6791 137.315 29.7337 130.678 38.0118C124.041 46.29 120.638 57.1022 120.638 70.4486C120.638 82.2745 123.701 91.7352 129.657 98.9997C135.783 106.264 143.781 109.812 153.651 109.812C166.414 109.812 179.517 105.926 186.494 100.013L185.303 98.4929ZM156.714 28.889C167.775 28.889 176.114 37.3361 175.433 49.3309C175.263 52.034 173.221 54.737 170.498 54.906L133.911 56.7643C136.123 39.7013 144.632 28.889 156.714 28.889Z" fill="#C1604D"/>
<path d="M48.2843 123.214H45.7318L33.8198 127.099C33.6496 127.099 33.4794 127.099 33.3093 127.268C34.6706 127.099 35.1811 127.944 35.6917 131.83C36.2022 135.715 36.2022 140.108 36.2022 149.738V182.343C36.2022 197.548 35.3513 205.151 33.6496 205.151H33.3093V205.657H51.0071V205.151H50.8369C49.1352 205.151 48.2843 197.548 48.2843 182.343V134.702C54.7509 131.83 62.5788 130.478 71.768 130.478C83.1695 130.478 88.9554 137.405 88.9554 151.427V182.343C88.9554 197.548 88.1045 205.151 86.4028 205.151H86.2326V205.657H103.93V205.151H103.59C101.888 205.151 101.038 197.548 101.038 182.343V150.076C101.038 131.661 94.4008 122.369 80.9573 122.369C72.9592 122.369 62.0682 126.086 48.2843 133.35V123.214Z" fill="#C1604D"/>
<path d="M133.174 227.958C131.472 227.958 130.621 220.355 130.621 205.151V146.021H128.239L115.646 150.076C116.837 150.076 117.688 151.258 117.858 153.792C118.199 156.158 118.369 162.408 118.369 172.545V205.151C118.369 220.355 117.518 227.958 115.986 227.958H115.646V228.464H133.514V227.958H133.174ZM115.816 126.255C115.816 131.154 119.05 134.364 123.814 134.364C128.749 134.364 131.983 131.154 131.983 126.255C131.983 121.524 128.749 118.314 123.814 118.314C119.05 118.314 115.816 121.524 115.816 126.255Z" fill="#C1604D"/>
<path d="M157.731 124.452H155.178L143.266 128.338C143.096 128.338 142.926 128.338 142.756 128.507C144.117 128.338 144.628 129.183 145.138 133.069C145.649 136.954 145.649 141.347 145.649 150.976V183.582C145.649 198.787 144.798 206.389 143.096 206.389H142.756V206.896H160.454V206.389H160.283C158.582 206.389 157.731 198.787 157.731 183.582V135.941C164.197 133.069 172.025 131.717 181.215 131.717C192.616 131.717 198.402 138.644 198.402 152.666V183.582C198.402 198.787 197.551 206.389 195.849 206.389H195.679V206.896H222.353H210.484H225.045C230 206.389 210.484 208.403 210.484 191.317V151.314C210.484 132.9 203.847 123.608 190.404 123.608C182.406 123.608 171.515 127.325 157.731 134.589V124.452Z" fill="#C1604D"/>
<path d="M229.148 162.01C229.919 161.821 230.846 161.727 231.969 161.735C233.088 161.725 233.781 161.915 234.012 162.312C234.016 162.33 234.074 162.41 234.096 162.424L233.903 161.639C233.268 161.454 232.508 161.376 231.617 161.386C230.727 161.396 229.88 161.509 229.074 161.707C227.3 162.142 225.998 163.028 225.186 164.362C224.37 165.678 224.18 167.218 224.615 168.984C225.046 170.732 225.931 172.009 227.27 172.816C228.627 173.618 230.174 173.806 231.948 173.371C232.755 173.173 233.557 172.882 234.351 172.479C235.145 172.077 235.778 171.638 236.255 171.181L236.061 170.396C236.048 170.418 236.034 170.516 236.038 170.534C236.024 170.783 235.866 171.068 235.556 171.352C234.496 172.141 233.267 172.707 231.869 173.05C230.525 173.379 229.327 173.143 228.252 172.329C227.195 171.51 226.457 170.291 226.049 168.633C225.64 166.974 225.722 165.535 226.278 164.321C226.852 163.103 227.804 162.34 229.148 162.01Z" fill="#C1604D"/>
<path d="M248.679 173.345C248.35 173.303 248.119 173.218 247.969 173.087C247.838 172.959 247.523 172.529 247.043 171.8L244.249 167.642C246.073 167.486 247.366 166.428 247.579 164.824C247.707 163.858 247.464 163.029 246.847 162.357C246.25 161.669 245.375 161.26 244.26 161.117L240.256 160.604L240.249 160.658L240.286 160.663C240.469 160.687 240.451 161.519 240.233 163.159L239.34 169.886C239.122 171.527 238.922 172.335 238.739 172.312L238.702 172.307L238.695 172.362L240.596 172.606L240.604 172.551L240.567 172.546C240.403 172.525 240.42 171.693 240.638 170.052L240.996 167.354L242.605 167.561L245.108 171.256C245.773 172.268 246.248 172.885 246.535 173.107C246.824 173.311 247.342 173.47 248.11 173.569L248.64 173.637L248.679 173.345ZM241.045 166.99L241.817 161.175L244.212 161.482C245.656 161.667 246.438 162.916 246.208 164.648C245.973 166.417 244.682 167.456 242.946 167.234L241.045 166.99Z" fill="#C1604D"/>
<path d="M251.781 175.024L254.189 170.195L254.933 170.56C256.883 171.516 257.825 172.101 257.751 172.29L257.726 172.34L257.743 172.348L258.195 171.441L258.178 171.433L258.162 171.466C258.063 171.623 257.031 171.219 255.081 170.263L254.337 169.899L256.788 164.987L258.704 165.927C260.571 166.842 261.447 167.436 261.324 167.724L261.283 167.807L261.299 167.815L261.694 167.024L255.465 163.969L255.44 164.019L255.473 164.035C255.639 164.116 255.351 164.898 254.611 166.382L251.578 172.463C250.838 173.947 250.385 174.648 250.22 174.567L250.187 174.551L250.162 174.6L256.441 177.679C256.663 177.357 256.811 177.142 256.91 177.027C256.918 177.01 256.959 176.969 256.967 176.952L256.951 176.944L256.91 177.027C256.704 177.275 255.663 176.928 253.796 176.013L251.781 175.024Z" fill="#C1604D"/>
<path d="M260.312 177.78C258.906 178.446 258.138 178.728 258.006 178.599L257.967 178.639L258.797 179.446L258.836 179.407L258.796 179.368C258.809 179.277 258.847 179.186 259.224 178.935C259.601 178.684 259.887 178.525 260.394 178.22C260.927 177.916 261.226 177.769 261.629 177.544L262.202 177.252L265.469 180.43C265.264 180.925 265.046 181.382 264.866 181.799C264.135 183.403 263.697 184.135 263.526 183.968L263.486 183.93L263.447 183.969L264.963 185.443L265.001 185.403C264.883 185.288 265.086 184.611 265.598 183.385L269.956 173.345L269.718 173.114L260.312 177.78ZM268.277 174.182L265.61 180.129L262.501 177.106L268.277 174.182Z" fill="#C1604D"/>
<path d="M267.364 190.06L268.211 191.793L268.261 191.768L268.253 191.752C268.172 191.587 268.88 191.143 270.375 190.421L278.501 186.495L279.283 188.095C279.993 189.547 280.294 190.666 280.052 190.844L279.968 190.926C280.143 190.78 280.667 190.506 280.792 190.426L276.227 181.087L275.331 181.438L275.439 181.406C275.729 181.327 276.42 182.238 277.138 183.706L277.92 185.307L269.795 189.233C268.299 189.955 267.511 190.234 267.43 190.069L267.414 190.036L267.364 190.06Z" fill="#C1604D"/>
<path d="M270.671 200.152C270.638 199.971 271.439 199.734 273.074 199.441L279.775 198.24C281.409 197.947 282.243 197.891 282.275 198.071L282.282 198.108L282.336 198.098L281.991 196.181L281.937 196.191L281.944 196.227C281.976 196.408 281.175 196.645 279.541 196.938L272.84 198.14C271.205 198.433 270.372 198.489 270.339 198.308L270.333 198.272L270.278 198.282L270.623 200.198L270.678 200.188L270.671 200.152Z" fill="#C1604D"/>
<path d="M272.37 208.979L280.718 206.466C282.127 206.059 282.821 205.955 282.802 206.157L282.797 206.212L282.852 206.216L283.05 204.13L282.995 204.125C282.979 204.29 282.115 204.617 280.399 205.145L270.448 208.159L270.413 208.525L280.481 212.87C281.563 213.374 282.088 213.698 282.072 213.863L282.127 213.868L282.242 212.66L282.187 212.655L282.18 212.728C282.104 212.943 281.308 212.741 279.775 212.123L272.37 208.979Z" fill="#C1604D"/>
<path d="M269.017 216.536L273.954 218.705L273.616 219.462C272.729 221.445 272.176 222.41 271.983 222.345L271.933 222.323L271.925 222.34L272.852 222.747L272.86 222.73L272.826 222.715C272.665 222.624 273.032 221.579 273.919 219.595L274.258 218.839L279.279 221.045L278.407 222.995C277.557 224.895 276.994 225.794 276.7 225.685L276.615 225.648L276.608 225.664L277.417 226.02L280.252 219.683L280.201 219.66L280.186 219.694C280.111 219.862 279.315 219.613 277.798 218.947L271.58 216.214C270.064 215.548 269.343 215.13 269.418 214.962L269.434 214.929L269.383 214.907L266.526 221.294C266.857 221.5 267.078 221.637 267.198 221.73C267.214 221.738 267.257 221.777 267.274 221.784L267.282 221.767L267.198 221.73C266.941 221.537 267.25 220.486 268.1 218.587L269.017 216.536Z" fill="#C1604D"/>
<path d="M266.286 235.306C267.246 236.491 267.087 237.935 265.861 238.914C265.328 239.34 264.555 239.675 263.557 239.908C263.101 239.99 262.711 239.949 262.373 239.796L262.963 240.524C264.129 240.321 265.15 239.882 266 239.203C266.851 238.523 267.332 237.739 267.457 236.839C267.58 235.965 267.319 235.116 266.683 234.33C265.862 233.317 264.084 233.115 262.227 233.87C260.274 234.654 258.519 234.598 257.837 233.756C256.958 232.671 257.205 231.275 258.459 230.273C258.66 230.112 258.761 230.031 258.773 230.045C259.543 229.501 260.402 229.097 261.392 228.823C261.767 228.759 262.13 228.797 262.48 228.965L261.89 228.237C260.831 228.425 259.36 229.129 258.25 230.016C256.564 231.363 256.235 233.272 257.449 234.771C258.328 235.856 260.169 236.078 262.093 235.317C263.977 234.565 265.674 234.549 266.286 235.306Z" fill="#C1604D"/>
<path d="M250.229 234.571L248.406 235.229L248.425 235.28L248.442 235.274C248.616 235.212 248.986 235.957 249.551 237.51L252.626 245.948L250.942 246.556C249.415 247.107 248.263 247.288 248.11 247.031L248.038 246.94C248.165 247.128 248.384 247.674 248.452 247.806L258.277 244.26L258.019 243.338L258.039 243.448C258.088 243.743 257.105 244.332 255.56 244.889L253.876 245.497L250.801 237.059C250.235 235.506 250.039 234.698 250.213 234.635L250.248 234.623L250.229 234.571Z" fill="#C1604D"/>
<path d="M233.576 245.799C233.548 247.582 233.424 248.462 233.221 248.46L233.166 248.459L233.165 248.514L234.345 248.528L234.346 248.473L234.29 248.473C234.106 248.47 234.006 247.752 234.01 246.319L234.107 240.088C234.139 238.067 235.316 237.069 237.639 237.097C239.76 237.122 240.794 238.182 240.762 240.296L240.664 246.563C240.625 247.886 240.522 248.547 240.375 248.545L240.338 248.545L240.337 248.6L242.255 248.623L242.255 248.567L242.237 248.567C242.053 248.565 241.973 247.737 241.999 246.083L242.085 240.569C242.125 237.978 240.708 236.656 237.831 236.621C235.084 236.589 233.702 237.694 233.667 239.936L233.576 245.799Z" fill="#C1604D"/>
<path d="M226.049 246.938C225.878 246.869 226.106 246.068 226.732 244.534L229.301 238.244C229.927 236.71 230.326 235.978 230.497 236.046L230.531 236.06L230.552 236.009L226.468 234.372C224.947 233.762 223.515 233.763 222.165 234.392C220.814 235.021 219.81 236.165 219.135 237.819C218.459 239.472 218.446 241.014 219.095 242.444C219.726 243.868 220.902 244.934 222.627 245.626L226.062 247.003L226.083 246.952L226.049 246.938ZM228.909 235.747L224.697 246.059L222.767 245.285C221.417 244.744 220.518 243.828 220.071 242.538C219.616 241.265 219.714 239.856 220.348 238.305C220.981 236.754 221.848 235.654 222.949 235.004C224.032 234.347 225.167 234.247 226.329 234.712L228.909 235.747Z" fill="#C1604D"/>
<path d="M217.615 229.139C217.76 229.252 217.316 229.958 216.283 231.257L212.048 236.581C211.015 237.879 210.426 238.472 210.282 238.358L210.253 238.336L210.218 238.379L211.752 239.581L211.787 239.537L211.758 239.515C211.613 239.401 212.057 238.695 213.09 237.397L217.325 232.073C218.358 230.775 218.946 230.182 219.091 230.295L219.12 230.318L219.155 230.275L217.621 229.073L217.586 229.116L217.615 229.139Z" fill="#C1604D"/>
<path d="M210.12 230.598C211.534 229.626 212.412 228.4 212.782 226.897C213.153 225.395 212.806 223.895 211.746 222.372C210.686 220.85 209.396 219.998 207.861 219.827C206.315 219.641 204.85 220.023 203.435 220.995C202.021 221.966 201.128 223.203 200.773 224.695C200.392 226.183 200.739 227.683 201.799 229.205C202.859 230.728 204.149 231.58 205.695 231.766C207.225 231.962 208.705 231.57 210.12 230.598ZM205.258 230.751C203.92 230.734 202.845 230.158 202.058 229.028C201.271 227.897 201.108 226.694 201.564 225.444C202.021 224.195 202.926 223.105 204.264 222.186C205.603 221.266 206.949 220.81 208.287 220.826C209.614 220.828 210.674 221.415 211.472 222.56C212.269 223.706 212.448 224.899 211.991 226.148C211.524 227.383 210.619 228.473 209.28 229.392C207.942 230.311 206.596 230.768 205.258 230.751Z" fill="#C1604D"/>
</svg>
