<svg width="310" height="317" viewBox="0 0 310 317" fill="none" xmlns="http://www.w3.org/2000/svg">
<g clip-path="url(#clip0)">
<path d="M2.02819 151.84C2.02819 151.84 5.08493 -2.76895 150.535 2.08653C295.984 6.94201 303.626 113.507 303.626 113.507C303.626 113.507 345.656 292.393 169.894 313.348C-5.86837 334.304 2.02819 151.84 2.02819 151.84Z" stroke="#FAF4ED" stroke-width="4.1073" stroke-miterlimit="10"/>
<path d="M117.498 163.684L119.781 159.64L119.784 159.636C122.66 154.692 124.995 150.698 127.058 147.389L127.06 147.386C130.359 142.149 133.267 138.185 135.783 135.523C137.041 134.191 138.22 133.165 139.319 132.467C140.414 131.772 141.481 131.37 142.5 131.37C143.864 131.37 145.009 132.055 145.857 132.944C146.704 133.832 147.309 134.974 147.614 136.043L147.625 136.084L147.633 136.127C148.063 138.714 147.912 143.482 147.228 150.069L147.227 150.074L147.226 150.08C146.678 154.682 146.267 158.151 145.993 160.485C145.918 161.128 145.853 161.684 145.798 162.155C146.524 161.353 147.507 160.168 148.751 158.593L156.96 147.619C160.729 142.26 163.756 138.224 166.019 135.522C167.149 134.173 168.104 133.138 168.875 132.435C169.26 132.084 169.617 131.799 169.941 131.598C170.244 131.41 170.614 131.233 171.002 131.233C171.666 131.233 172.297 131.401 172.737 131.904C173.156 132.385 173.267 133.023 173.267 133.641V134.233L173.262 134.275C172.584 140.394 172.722 145.813 173.665 150.95C174.414 154.908 175.319 157.717 176.411 159.521C177.485 161.294 178.676 162.006 180.045 162.006C181.042 162.006 182.115 161.568 183.726 160.492L187.75 157.61H188.39L188.507 157.649C188.835 157.759 189.117 157.947 189.312 158.22C189.489 158.468 189.56 158.739 189.572 158.985C189.624 159.362 189.512 159.721 189.361 160.016C189.196 160.339 188.945 160.662 188.64 160.977C188.029 161.609 187.114 162.299 185.92 163.004C183.708 164.389 181.776 165.175 180.319 165.175C177.524 165.175 175.219 163.945 173.429 161.577C171.665 159.243 170.403 155.813 169.571 151.366L169.57 151.361L169.569 151.355C168.907 147.501 168.625 142.78 169.075 137.194C169.018 137.261 168.958 137.331 168.896 137.407C168.251 138.186 167.379 139.361 166.293 140.925C166.045 141.331 165.234 142.459 163.937 144.209C162.6 146.013 160.717 148.519 158.322 151.675C154.622 156.964 151.665 160.929 149.472 163.578C148.377 164.901 147.458 165.913 146.723 166.6C146.357 166.943 146.019 167.221 145.714 167.419C145.435 167.599 145.076 167.785 144.692 167.785C143.847 167.785 143.137 167.44 142.644 166.774C142.183 166.149 141.956 165.302 141.882 164.345C141.864 164.163 141.845 163.985 141.827 163.811L141.826 163.81C141.715 162.747 141.617 161.823 141.749 161.009L143.254 148.945C143.802 143.166 143.927 139.413 143.668 137.595L143.666 137.584L143.665 137.572C143.563 136.651 143.387 136.043 143.108 135.566C142.662 135.691 142.085 135.997 141.366 136.57C140.436 137.31 139.353 138.428 138.12 139.943C135.657 142.97 132.668 147.496 129.183 153.523C124.667 161.757 117.55 175.615 116.595 177.532L116.585 177.55L116.575 177.569C115.476 179.496 114.186 180.974 112.354 180.974C110.891 180.974 109.929 180.254 109.379 179.261C108.872 178.346 108.725 177.231 108.718 176.297C108.298 173.825 108.556 170.565 109.429 166.571C110.314 162.528 111.844 157.672 114.01 152.018C118.342 140.711 125.244 126.151 134.706 108.416L134.715 108.4L134.724 108.384C135.158 107.659 135.903 106.778 137.019 106.778C137.57 106.778 138.044 107.061 138.392 107.485C138.732 107.899 138.976 108.47 139.129 109.159L139.139 109.204L139.143 109.249C139.228 110.093 139.017 111.348 138.531 112.931C138.038 114.539 137.234 116.567 136.058 118.995L132.64 126.26C127.094 139.235 122.955 149.181 120.271 156.087C119.032 159.277 118.107 161.808 117.498 163.684Z" fill="#FAF4ED"/>
<path d="M115.888 200.633C116.829 203.383 120.741 207.526 133.669 209.906C153.467 213.551 187.521 201.803 199.511 191.32C200 190.892 200.113 190.191 199.822 189.609C199.508 188.981 198.738 188.741 198.122 189.076C196.286 190.076 192.623 192.03 190.403 192.936C187.392 194.164 183.718 195.635 179.714 197.069C164.599 202.485 137.907 209.069 123.473 199.627C122.46 198.965 122.018 198.036 121.606 197.168C121.007 195.908 120.47 194.777 118.335 194.777C115.041 194.671 115.031 198.129 115.888 200.633Z" fill="#FAF4ED"/>
<path d="M142.76 290.818L143.206 282.998L144.5 283.072L144.166 288.934L146.762 283.201L147.887 283.266L149.825 289.258L150.16 283.396L151.442 283.469L150.996 291.289L149.444 291.2L147.212 284.807L144.313 290.907L142.76 290.818Z" fill="#FAF4ED"/>
<path d="M137.251 289.242L137.58 286.853L134.677 286.451L134.813 285.469L137.715 285.87L138.052 283.425L134.814 282.977L134.957 281.939L139.467 282.563L138.383 290.445L133.872 289.821L134.014 288.794L137.251 289.242Z" fill="#FAF4ED"/>
<path d="M125.379 280.058L126.635 280.326L129.198 286.876L130.416 281.132L131.673 281.4L130.024 289.172L128.768 288.905L126.21 282.333L124.987 288.099L123.73 287.831L125.379 280.058Z" fill="#FAF4ED"/>
<path d="M118.447 286.435L120.563 278.765L121.801 279.108L119.685 286.778L118.447 286.435Z" fill="#FAF4ED"/>
<path d="M111.021 275.689L112.236 276.107L113.992 282.919L115.892 277.363L117.107 277.78L114.537 285.298L113.321 284.881L111.573 278.047L109.666 283.625L108.451 283.207L111.021 275.689Z" fill="#FAF4ED"/>
<path d="M96.3732 278.103C95.4958 277.674 94.8754 277.094 94.512 276.365C94.1486 275.635 94.0515 274.839 94.2206 273.976L95.4456 274.576C95.4039 275.09 95.5078 275.564 95.7573 275.995C95.9968 276.43 96.3831 276.778 96.9163 277.039C97.3415 277.247 97.7738 277.329 98.2132 277.284C98.6459 277.237 99.0555 277.065 99.4419 276.769C99.8183 276.476 100.133 276.07 100.386 275.549C100.636 275.036 100.762 274.537 100.764 274.053C100.756 273.572 100.637 273.146 100.408 272.775C100.173 272.4 99.8424 272.109 99.4172 271.901C98.884 271.64 98.3743 271.546 97.8882 271.618C97.392 271.693 96.956 271.902 96.5801 272.245L95.3551 271.646C95.9292 270.981 96.6149 270.568 97.4124 270.406C98.2066 270.251 99.0424 270.388 99.9198 270.817C100.595 271.147 101.118 271.592 101.49 272.15C101.858 272.715 102.051 273.34 102.068 274.026C102.082 274.719 101.916 275.42 101.571 276.129C101.226 276.838 100.778 277.397 100.228 277.806C99.6751 278.221 99.063 278.457 98.3921 278.513C97.7211 278.57 97.0482 278.433 96.3732 278.103Z" fill="#FAF4ED"/>
<path d="M89.7808 265.364L89.8726 269.113L90.6579 269.578L92.2725 266.841L93.3777 267.496L89.3356 274.349L86.9214 272.918C86.1394 272.455 85.6605 271.914 85.485 271.294C85.303 270.671 85.3971 270.046 85.7674 269.418C86.0842 268.881 86.4956 268.531 87.0017 268.368C87.5013 268.201 88.0642 268.238 88.6902 268.478L88.5398 264.628L89.7808 265.364ZM90.1941 270.365L88.9725 269.641C88.0806 269.112 87.4017 269.242 86.9361 270.032C86.7147 270.407 86.6528 270.764 86.7504 271.101C86.8378 271.441 87.1109 271.747 87.5698 272.019L88.7914 272.743L90.1941 270.365Z" fill="#FAF4ED"/>
<path d="M80.7266 267.763L82.0899 265.774L79.6764 264.112L80.237 263.294L82.6505 264.956L84.0456 262.919L81.3536 261.066L81.946 260.201L85.6962 262.783L81.1988 269.347L77.4486 266.765L78.0347 265.91L80.7266 267.763Z" fill="#FAF4ED"/>
<path d="M74.4722 256.626L77.0964 258.722L78.6449 257.752L79.7192 258.61L72.5558 262.913L71.4023 261.992L73.9953 254.038L75.0697 254.896L74.4722 256.626ZM74.1369 257.628L72.853 261.362L76.1975 259.273L74.1369 257.628Z" fill="#FAF4ED"/>
<path d="M62.5738 254.404L63.276 253.641L64.9059 255.148L69.5923 250.057L70.5438 250.937L65.8574 256.028L67.479 257.528L66.7768 258.291L62.5738 254.404Z" fill="#FAF4ED"/>
<path d="M59.1587 250.952L64.8488 245.391L65.7446 246.312L60.0545 251.873L59.1587 250.952Z" fill="#FAF4ED"/>
<path d="M55.8319 247.403L59.3053 241.356L52.8326 243.932L51.9188 242.875L59.8054 239.832L60.8814 241.077L56.7457 248.46L55.8319 247.403Z" fill="#FAF4ED"/>
<path d="M49.7915 238.424L51.72 236.976L49.9658 234.628L50.7588 234.033L52.513 236.38L54.4866 234.898L52.53 232.28L53.3681 231.65L56.0938 235.297L49.7316 240.076L47.0058 236.429L47.8349 235.806L49.7915 238.424Z" fill="#FAF4ED"/>
<path d="M44.2993 221.406C44.635 221.206 44.996 221.1 45.3823 221.089C45.7621 221.081 46.1368 221.191 46.5064 221.416C46.876 221.642 47.2025 221.995 47.4859 222.473C47.7616 222.938 47.9278 223.403 47.9847 223.868C48.0351 224.336 47.9769 224.769 47.8101 225.165C47.6433 225.562 47.3758 225.892 47.0076 226.155L46.3068 224.972C46.5847 224.762 46.765 224.485 46.8479 224.138C46.9269 223.785 46.8554 223.421 46.6333 223.046C46.4342 222.71 46.1906 222.505 45.9026 222.432C45.6108 222.352 45.3229 222.396 45.0388 222.565C44.7935 222.711 44.6335 222.899 44.559 223.126C44.478 223.358 44.4517 223.601 44.48 223.856C44.5083 224.11 44.5677 224.446 44.6583 224.864C44.7754 225.372 44.8466 225.801 44.8719 226.154C44.8933 226.499 44.8304 226.843 44.6832 227.184C44.536 227.525 44.2526 227.821 43.8329 228.07C43.4649 228.289 43.0885 228.391 42.7037 228.375C42.3188 228.36 41.9526 228.228 41.605 227.98C41.2509 227.736 40.9437 227.394 40.6833 226.955C40.2698 226.257 40.1102 225.604 40.2047 224.997C40.2954 224.383 40.5946 223.886 41.1025 223.505L41.809 224.698C41.5775 224.897 41.4308 225.15 41.3687 225.458C41.2963 225.764 41.3616 226.088 41.5646 226.43C41.7484 226.741 41.9765 226.941 42.249 227.033C42.515 227.128 42.7965 227.087 43.0934 226.911C43.3259 226.772 43.4813 226.592 43.5596 226.371C43.6315 226.153 43.6552 225.92 43.6308 225.673C43.596 225.422 43.5352 225.091 43.4485 224.679C43.3275 224.166 43.2576 223.731 43.2388 223.375C43.2098 223.016 43.2721 222.664 43.4257 222.319C43.5755 221.968 43.8667 221.663 44.2993 221.406Z" fill="#FAF4ED"/>
<path d="M34.9031 216.005L35.8287 215.538L36.8252 217.522L43.0029 214.404L43.5846 215.562L37.4069 218.68L38.3984 220.654L37.4727 221.121L34.9031 216.005Z" fill="#FAF4ED"/>
<path d="M32.864 211.484L37.2229 209.668C37.8748 209.396 38.3013 209.051 38.5023 208.634C38.7004 208.209 38.6915 207.737 38.4757 207.216C38.2627 206.703 37.9377 206.37 37.5006 206.219C37.0607 206.06 36.5148 206.117 35.8629 206.388L31.5041 208.205L31.0119 207.018L35.3707 205.202C36.3763 204.783 37.2471 204.725 37.9832 205.029C38.7122 205.335 39.2538 205.915 39.6078 206.769C39.959 207.616 39.9844 208.403 39.6842 209.13C39.3771 209.861 38.7207 210.435 37.7151 210.854L33.3562 212.671L32.864 211.484Z" fill="#FAF4ED"/>
<path d="M31.1569 195.217C31.9214 194.968 32.6403 194.908 33.3138 195.036C33.9777 195.16 34.5642 195.47 35.073 195.969C35.5796 196.459 35.9672 197.119 36.2358 197.949L37.0555 200.479L29.4896 202.942L28.6699 200.412C28.4013 199.583 28.328 198.82 28.4502 198.125C28.5629 197.424 28.8516 196.828 29.3165 196.337C29.779 195.839 30.3925 195.466 31.1569 195.217ZM35.1632 198.404C34.8691 197.497 34.4076 196.877 33.7786 196.544C33.1496 196.211 32.41 196.184 31.5598 196.46C30.7097 196.737 30.1275 197.195 29.8135 197.835C29.4994 198.474 29.4894 199.248 29.7835 200.156L30.176 201.367L35.5557 199.616L35.1632 198.404Z" fill="#FAF4ED"/>
<path d="M26.0784 191.521L33.7794 189.52L34.101 190.764L26.4001 192.765L26.0784 191.521Z" fill="#FAF4ED"/>
<path d="M24.2838 183.938C24.1449 183.215 24.1891 182.529 24.4164 181.881C24.6424 181.225 25.0296 180.672 25.5781 180.222C26.1178 179.766 26.7713 179.463 27.5385 179.315C28.3058 179.167 29.0281 179.204 29.7056 179.425C30.3744 179.64 30.9388 180.009 31.3989 180.533C31.8503 181.05 32.1454 181.67 32.2843 182.393C32.4247 183.124 32.3819 183.817 32.156 184.473C31.9212 185.123 31.534 185.676 30.9943 186.132C30.4472 186.589 29.79 186.892 29.0228 187.04C28.2556 187.189 27.5369 187.151 26.8667 186.929C26.1892 186.708 25.6248 186.338 25.1735 185.821C24.7207 185.296 24.4241 184.669 24.2838 183.938ZM25.4568 183.712C25.5532 184.213 25.7533 184.638 26.0571 184.985C26.3609 185.331 26.748 185.574 27.2185 185.713C27.6874 185.844 28.206 185.855 28.774 185.746C29.342 185.636 29.8195 185.433 30.2062 185.136C30.5916 184.832 30.861 184.463 31.0146 184.027C31.1681 183.592 31.1967 183.124 31.1003 182.622C31.0053 182.128 30.8066 181.711 30.5042 181.371C30.2004 181.024 29.814 180.785 29.345 180.654C28.8746 180.515 28.3554 180.5 27.7873 180.61C27.2193 180.72 26.7426 180.927 26.3572 181.231C25.9705 181.527 25.7003 181.893 25.5467 182.328C25.3918 182.756 25.3618 183.217 25.4568 183.712Z" fill="#FAF4ED"/>
<path d="M29.5283 168.137C29.5554 168.519 29.5087 168.883 29.3882 169.228C29.2724 169.573 29.0978 169.883 28.8647 170.157C28.6265 170.426 28.345 170.645 28.02 170.813C27.6948 170.977 27.3414 171.072 26.9597 171.1C26.5733 171.127 26.2099 171.083 25.8695 170.967C25.5241 170.847 25.2168 170.67 24.9476 170.436C24.6734 170.198 24.4546 169.917 24.2912 169.592C24.1231 169.267 24.0255 168.914 23.9984 168.532C23.9709 168.146 24.0176 167.782 24.1385 167.441C24.2543 167.096 24.4313 166.789 24.6695 166.519C24.9027 166.245 25.1819 166.026 25.5071 165.863C25.8274 165.695 26.1807 165.597 26.567 165.57C26.9487 165.542 27.3122 165.589 27.6576 165.709C28.0027 165.825 28.3123 166.002 28.5865 166.24C28.8557 166.473 29.0721 166.752 29.2355 167.077C29.4033 167.398 29.5009 167.751 29.5283 168.137Z" fill="#FAF4ED"/>
<path d="M22.5006 147.875L30.3224 148.289L30.2544 149.583L24.3908 149.273L30.1353 151.845L30.0761 152.971L24.093 154.934L29.9565 155.244L29.889 156.527L22.0672 156.114L22.1489 154.56L28.5313 152.302L22.4189 149.428L22.5006 147.875Z" fill="#FAF4ED"/>
<path d="M24.0507 142.33L26.4412 142.65L26.8279 139.745L27.8109 139.877L27.4243 142.782L29.8706 143.109L30.3019 139.869L31.3408 140.008L30.7399 144.521L22.8535 143.466L23.4543 138.953L24.482 139.09L24.0507 142.33Z" fill="#FAF4ED"/>
<path d="M33.1713 130.403L32.9102 131.661L26.3766 134.248L32.1247 135.446L31.8637 136.704L24.0855 135.082L24.3466 133.824L30.9022 131.243L25.1321 130.039L25.3931 128.781L33.1713 130.403Z" fill="#FAF4ED"/>
<path d="M26.7642 123.467L34.4409 125.56L34.1046 126.8L26.4278 124.707L26.7642 123.467Z" fill="#FAF4ED"/>
<path d="M37.461 115.991L37.0507 117.209L30.2546 118.988L35.816 120.872L35.4057 122.09L27.8801 119.541L28.2905 118.323L35.1079 116.551L29.5252 114.66L29.9355 113.442L37.461 115.991Z" fill="#FAF4ED"/>
<path d="M34.9738 101.306C35.3975 100.426 35.9726 99.8028 36.6993 99.4365C37.4259 99.0702 38.2203 98.9704 39.0824 99.137L38.4909 100.366C37.9766 100.326 37.5046 100.431 37.0752 100.682C36.6422 100.924 36.2969 101.312 36.0395 101.847C35.8342 102.273 35.7549 102.706 35.8017 103.146C35.8517 103.579 36.0256 103.989 36.3233 104.375C36.6176 104.751 37.0252 105.065 37.546 105.317C38.06 105.566 38.5588 105.69 39.0424 105.69C39.5224 105.68 39.9471 105.56 40.3165 105.33C40.6891 105.093 40.978 104.761 41.1833 104.335C41.4408 103.8 41.5323 103.289 41.4581 102.802C41.3803 102.306 41.169 101.87 40.8244 101.494L41.4159 100.266C42.0824 100.838 42.4987 101.524 42.6649 102.322C42.8243 103.117 42.6922 103.954 42.2685 104.835C41.9427 105.512 41.5021 106.037 40.9468 106.411C40.3847 106.782 39.7613 106.977 39.0766 106.996C38.3851 107.012 37.6843 106.849 36.9741 106.505C36.2639 106.162 35.7033 105.715 35.2923 105.166C34.8745 104.613 34.6356 104.001 34.5753 103.329C34.5151 102.657 34.648 101.983 34.9738 101.306Z" fill="#FAF4ED"/>
<path d="M47.6598 94.6453L43.9185 94.7499L43.4582 95.5382L46.1993 97.1465L45.5515 98.256L38.6889 94.2295L40.1039 91.8061C40.5623 91.021 41.1001 90.5395 41.7173 90.3615C42.3383 90.1771 42.9631 90.2693 43.5917 90.6381C44.1296 90.9537 44.4812 91.3647 44.6466 91.8712C44.8158 92.3712 44.7823 92.9352 44.5461 93.5632L48.3872 93.3995L47.6598 94.6453ZM42.6708 95.0762L43.3868 93.8499C43.9096 92.9545 43.7758 92.2749 42.9852 91.811C42.6093 91.5905 42.2533 91.5297 41.9171 91.6286C41.5782 91.7173 41.2743 91.9919 41.0053 92.4526L40.2893 93.6789L42.6708 95.0762Z" fill="#FAF4ED"/>
<path d="M45.2198 85.5715L47.2123 86.9305L48.8579 84.506L49.6772 85.0649L48.0316 87.4894L50.0706 88.8801L51.9061 86.1759L52.772 86.7665L50.215 90.5338L43.6417 86.0503L46.1987 82.283L47.0553 82.8673L45.2198 85.5715Z" fill="#FAF4ED"/>
<path d="M56.3023 79.255L54.2241 81.8933L55.1996 83.4416L54.3488 84.5217L50.0204 77.3585L50.934 76.1987L58.8818 78.767L58.031 79.8472L56.3023 79.255ZM55.3015 78.9228L51.5694 77.6504L53.6697 80.9945L55.3015 78.9228Z" fill="#FAF4ED"/>
<path d="M58.4643 67.3136L59.2286 68.0142L57.7322 69.6544L62.8328 74.3307L61.9593 75.2882L56.8586 70.6118L55.3698 72.2437L54.6056 71.543L58.4643 67.3136Z" fill="#FAF4ED"/>
<path d="M61.8923 63.8734L67.4651 69.5526L66.5503 70.4547L60.9774 64.7755L61.8923 63.8734Z" fill="#FAF4ED"/>
<path d="M65.4181 60.5218L71.4644 63.9748L68.8681 57.4989L69.9192 56.5779L72.9869 64.4689L71.7493 65.5533L64.367 61.4428L65.4181 60.5218Z" fill="#FAF4ED"/>
<path d="M74.3481 54.425L75.8004 56.3505L78.1357 54.5805L78.7329 55.3723L76.3977 57.1423L77.8839 59.1128L80.4886 57.1386L81.1198 57.9754L77.4911 60.7256L72.6998 54.3732L76.3285 51.623L76.9529 52.4508L74.3481 54.425Z" fill="#FAF4ED"/>
<path d="M91.3018 48.8349C91.5024 49.1702 91.609 49.5313 91.6216 49.9182C91.6304 50.2987 91.5226 50.6747 91.2984 51.0462C91.0741 51.4177 90.7238 51.7467 90.2472 52.0332C89.7836 52.312 89.3201 52.4811 88.8566 52.5406C88.3893 52.5936 87.9574 52.5376 87.561 52.3727C87.1646 52.2077 86.8346 51.9415 86.571 51.574L87.7494 50.8655C87.959 51.1428 88.2369 51.3219 88.5832 51.4031C88.9358 51.4804 89.2989 51.4067 89.6724 51.1822C90.0072 50.9809 90.2108 50.7357 90.2831 50.4468C90.3618 50.154 90.3163 49.8658 90.1466 49.5821C90 49.3371 89.8128 49.1778 89.585 49.1044C89.3533 49.0245 89.1107 48.9994 88.8571 49.0292C88.6034 49.0589 88.268 49.1203 87.8509 49.2133C87.3449 49.3334 86.9162 49.4071 86.5647 49.4343C86.2197 49.4576 85.8767 49.3965 85.5356 49.2508C85.1946 49.1052 84.8987 48.8228 84.6479 48.4037C84.4281 48.0362 84.3253 47.6597 84.3398 47.274C84.3542 46.8884 84.4844 46.5207 84.7306 46.1711C84.9728 45.8151 85.3129 45.5054 85.7508 45.2422C86.4462 44.8241 87.097 44.6607 87.7033 44.7521C88.316 44.8396 88.8134 45.1367 89.1954 45.6435L88.0073 46.3577C87.8079 46.1269 87.5544 45.9813 87.2468 45.9208C86.9418 45.8499 86.6186 45.9171 86.2773 46.1223C85.9682 46.3081 85.7685 46.5377 85.6782 46.8112C85.5841 47.0782 85.6257 47.36 85.8032 47.6566C85.942 47.8887 86.1222 48.0434 86.3435 48.1207C86.561 48.1916 86.7934 48.2141 87.0406 48.1882C87.2903 48.152 87.6206 48.0894 88.0313 48.0002C88.5437 47.8762 88.9776 47.8039 89.3329 47.7831C89.6908 47.7521 90.0422 47.8126 90.3871 47.9646C90.7385 48.1128 91.0434 48.4029 91.3018 48.8349Z" fill="#FAF4ED"/>
<path d="M96.6528 39.3965L97.1222 40.321L95.1446 41.33L98.2775 47.5001L97.1231 48.0891L93.9901 41.9191L92.0225 42.9231L91.5531 41.9986L96.6528 39.3965Z" fill="#FAF4ED"/>
<path d="M101.149 37.334L102.977 41.688C103.25 42.3392 103.596 42.7642 104.014 42.9631C104.438 43.1591 104.91 43.1476 105.429 42.9285C105.941 42.7124 106.273 42.3851 106.423 41.9467C106.579 41.5054 106.521 40.9591 106.248 40.3079L104.42 35.9539L105.603 35.4545L107.432 39.8085C107.853 40.813 107.914 41.6845 107.613 42.4231C107.309 43.1548 106.731 43.7003 105.88 44.0596C105.035 44.4159 104.249 44.4458 103.521 44.1493C102.791 43.8459 102.215 43.1919 101.793 42.1874L99.9651 37.8334L101.149 37.334Z" fill="#FAF4ED"/>
<path d="M117.378 35.539C117.629 36.3027 117.692 37.0219 117.565 37.6967C117.444 38.3619 117.135 38.9505 116.639 39.4626C116.151 39.9723 115.492 40.3639 114.665 40.6373L112.139 41.4718L109.654 33.9132L112.179 33.0787C113.007 32.8053 113.768 32.7278 114.464 32.8462C115.164 32.9551 115.76 33.2408 116.252 33.7033C116.752 34.1634 117.127 34.7753 117.378 35.539ZM114.206 39.5664C115.112 39.267 115.73 38.8016 116.06 38.1703C116.39 37.5389 116.416 36.7985 116.137 35.9492C115.857 35.0998 115.398 34.5198 114.758 34.209C114.118 33.8982 113.345 33.8925 112.439 34.1919L111.229 34.5915L112.997 39.966L114.206 39.5664Z" fill="#FAF4ED"/>
<path d="M121.035 30.4423L123.061 38.1367L121.819 38.4654L119.793 30.7709L121.035 30.4423Z" fill="#FAF4ED"/>
<path d="M128.598 28.6079C129.321 28.4651 130.006 28.5058 130.655 28.7298C131.312 28.9525 131.866 29.3369 132.318 29.8833C132.776 30.4208 133.08 31.0729 133.231 31.8396C133.382 32.6063 133.348 33.3291 133.13 34.008C132.917 34.678 132.55 35.2445 132.028 35.7075C131.513 36.1617 130.894 36.4602 130.171 36.6029C129.441 36.7471 128.748 36.7079 128.092 36.4853C127.442 36.2538 126.887 35.8694 126.429 35.3318C125.97 34.787 125.665 34.1312 125.514 33.3645C125.363 32.5978 125.398 31.8787 125.618 31.2072C125.837 30.5283 126.204 29.9617 126.719 29.5076C127.242 29.0519 127.869 28.752 128.598 28.6079ZM128.829 29.78C128.328 29.8791 127.904 30.0814 127.558 30.3872C127.213 30.6929 126.971 31.0814 126.834 31.5527C126.705 32.0225 126.696 32.5412 126.808 33.1089C126.919 33.6765 127.124 34.153 127.422 34.5384C127.727 34.9222 128.098 35.1899 128.533 35.3412C128.969 35.4926 129.437 35.5187 129.938 35.4197C130.432 35.3221 130.848 35.1212 131.187 34.8169C131.532 34.5112 131.77 34.1234 131.9 33.6536C132.037 33.1823 132.049 32.6629 131.938 32.0952C131.826 31.5275 131.618 31.0518 131.312 30.6679C131.014 30.2825 130.648 30.0142 130.212 29.8628C129.784 29.71 129.323 29.6824 128.829 29.78Z" fill="#FAF4ED"/>
<path d="M144.381 33.7792C143.999 33.8081 143.635 33.7631 143.289 33.6443C142.944 33.53 142.634 33.357 142.359 33.1251C142.088 32.8882 141.868 32.6077 141.699 32.2835C141.534 31.9591 141.437 31.606 141.408 31.2245C141.379 30.8382 141.422 30.4746 141.536 30.1337C141.655 29.7877 141.831 29.4795 142.063 29.2092C142.3 28.9339 142.581 28.7137 142.905 28.5487C143.229 28.3791 143.582 28.2798 143.964 28.2509C144.35 28.2217 144.714 28.2666 145.055 28.3859C145.4 28.5001 145.709 28.6756 145.979 28.9125C146.254 29.1444 146.474 29.4226 146.639 29.7471C146.808 30.0666 146.907 30.4194 146.936 30.8057C146.965 31.1872 146.92 31.551 146.801 31.897C146.687 32.2426 146.511 32.5531 146.275 32.8284C146.042 33.0987 145.764 33.3164 145.439 33.4814C145.12 33.6507 144.767 33.7499 144.381 33.7792Z" fill="#FAF4ED"/>
<path d="M164.579 26.6632L164.201 34.4869L162.906 34.4243L163.19 28.5594L160.644 34.315L159.518 34.2606L157.527 28.2858L157.244 34.1507L155.961 34.0886L156.339 26.265L157.892 26.3401L160.179 32.7129L163.025 26.5882L164.579 26.6632Z" fill="#FAF4ED"/>
<path d="M170.101 28.1911L169.793 30.5831L172.7 30.9588L172.573 31.9424L169.667 31.5668L169.352 34.0148L172.593 34.4337L172.459 35.4733L167.944 34.8896L168.959 26.998L173.475 27.5816L173.343 28.61L170.101 28.1911Z" fill="#FAF4ED"/>
<path d="M182.054 37.2687L180.795 37.012L178.175 30.4854L177.007 36.2398L175.748 35.9831L177.329 28.1965L178.588 28.4532L181.203 35.0019L182.375 29.2254L183.634 29.4821L182.054 37.2687Z" fill="#FAF4ED"/>
<path d="M188.93 30.8328L186.881 38.5211L185.64 38.1888L187.689 30.5004L188.93 30.8328Z" fill="#FAF4ED"/>
<path d="M196.449 41.5122L195.231 41.1054L193.415 34.3091L191.564 39.8815L190.345 39.4747L192.85 31.9344L194.069 32.3412L195.877 39.1588L197.735 33.5651L198.954 33.9719L196.449 41.5122Z" fill="#FAF4ED"/>
<path d="M211.076 38.9693C211.957 39.3907 212.583 39.9647 212.952 40.6913C213.322 41.4178 213.426 42.213 213.265 43.0769L212.035 42.4885C212.072 41.9733 211.964 41.501 211.71 41.0717C211.467 40.6388 211.078 40.2944 210.542 40.0383C210.115 39.834 209.682 39.756 209.243 39.8042C208.811 39.8557 208.403 40.0312 208.019 40.3306C207.645 40.6266 207.334 41.0357 207.085 41.5581C206.84 42.0737 206.719 42.5736 206.721 43.0579C206.734 43.5386 206.856 43.9635 207.088 44.3327C207.327 44.7051 207.66 44.9934 208.087 45.1976C208.622 45.4537 209.133 45.5438 209.618 45.4678C210.113 45.3883 210.548 45.1754 210.921 44.8291L212.151 45.4174C211.583 46.0868 210.9 46.506 210.104 46.6749C209.312 46.8371 208.475 46.7075 207.593 46.286C206.916 45.9619 206.388 45.5223 206.012 44.9674C205.638 44.4057 205.44 43.782 205.417 43.0964C205.397 42.4039 205.557 41.7015 205.896 40.9892C206.235 40.2768 206.677 39.714 207.224 39.3006C207.773 38.8805 208.383 38.6392 209.054 38.5767C209.724 38.5142 210.398 38.6451 211.076 38.9693Z" fill="#FAF4ED"/>
<path d="M217.78 51.6497L217.655 47.9019L216.866 47.4434L215.275 50.195L214.164 49.5497L218.146 42.661L220.573 44.0704C221.359 44.527 221.843 45.0642 222.024 45.682C222.211 46.3035 222.122 46.9298 221.758 47.5607C221.446 48.1007 221.037 48.4543 220.533 48.6217C220.034 48.7929 219.471 48.7612 218.843 48.5267L219.027 52.3743L217.78 51.6497ZM217.323 46.653L218.551 47.3663C219.447 47.887 220.125 47.7506 220.584 46.957C220.802 46.5797 220.86 46.2229 220.76 45.8864C220.67 45.5472 220.394 45.2436 219.932 44.9757L218.705 44.2625L217.323 46.653Z" fill="#FAF4ED"/>
<path d="M226.813 49.1708L225.467 51.1723L227.895 52.8128L227.341 53.6358L224.913 51.9953L223.536 54.0436L226.244 55.8733L225.66 56.7431L221.887 54.1941L226.326 47.5911L230.099 50.1401L229.521 51.0006L226.813 49.1708Z" fill="#FAF4ED"/>
<path d="M233.164 60.2524L230.522 58.1796L228.982 59.1632L227.9 58.3146L235.025 53.9488L236.187 54.86L233.664 62.8358L232.582 61.9872L233.164 60.2524ZM233.491 59.248L234.742 55.5025L231.416 57.6204L233.491 59.248Z" fill="#FAF4ED"/>
<path d="M245.082 62.3701L244.387 63.1391L242.743 61.646L238.102 66.7784L237.143 65.9067L241.784 60.7743L240.149 59.2887L240.845 58.5197L245.082 62.3701Z" fill="#FAF4ED"/>
<path d="M248.527 65.791L242.886 71.4024L241.982 70.4894L247.623 64.8779L248.527 65.791Z" fill="#FAF4ED"/>
<path d="M251.885 69.3113L248.465 75.3883L254.914 72.7552L255.838 73.8045L247.978 76.9166L246.891 75.6812L250.962 68.262L251.885 69.3113Z" fill="#FAF4ED"/>
<path d="M258.004 78.2363L256.088 79.7016L257.863 82.0332L257.075 82.6358L255.3 80.3041L253.34 81.8036L255.32 84.4043L254.487 85.0411L251.729 81.4181L258.049 76.5841L260.807 80.2071L259.983 80.837L258.004 78.2363Z" fill="#FAF4ED"/>
<path d="M263.645 95.2057C263.311 95.4084 262.951 95.5172 262.565 95.5319C262.185 95.5427 261.809 95.4368 261.438 95.2142C261.066 94.9915 260.737 94.6422 260.449 94.1664C260.169 93.7034 259.999 93.2399 259.938 92.7758C259.883 92.3079 259.938 91.8749 260.101 91.4769C260.264 91.0789 260.529 90.7468 260.895 90.4807L261.606 91.6574C261.33 91.869 261.152 92.1484 261.072 92.4957C260.996 92.8495 261.071 93.2129 261.297 93.5858C261.499 93.9202 261.744 94.1229 262.033 94.1937C262.325 94.271 262.613 94.2239 262.895 94.0523C263.139 93.9041 263.298 93.7157 263.37 93.487C263.449 93.2545 263.473 93.0113 263.443 92.7573C263.412 92.5034 263.35 92.1677 263.255 91.7502C263.134 91.2439 263.059 90.8148 263.031 90.4628C263.006 90.1173 263.066 89.7733 263.21 89.4308C263.354 89.0883 263.635 88.7903 264.053 88.5369C264.419 88.3146 264.794 88.2096 265.179 88.222C265.564 88.2344 265.931 88.3629 266.281 88.6076C266.637 88.8484 266.948 89.1874 267.212 89.6247C267.632 90.3192 267.797 90.9704 267.708 91.5783C267.622 92.1926 267.328 92.6925 266.823 93.078L266.106 91.8915C266.336 91.6905 266.48 91.4358 266.54 91.1272C266.609 90.8212 266.541 90.4978 266.335 90.157C266.149 89.8483 265.919 89.6495 265.646 89.5605C265.379 89.4676 265.098 89.5109 264.802 89.6902C264.571 89.8306 264.417 90.0119 264.341 90.2341C264.271 90.4524 264.249 90.6853 264.276 90.9329C264.313 91.1829 264.377 91.5134 264.467 91.9244C264.592 92.4372 264.666 92.8715 264.688 93.2274C264.72 93.5858 264.661 93.9382 264.51 94.2845C264.364 94.6373 264.075 94.9444 263.645 95.2057Z" fill="#FAF4ED"/>
<path d="M273.088 100.523L272.167 100.999L271.153 99.0234L265.003 102.196L264.411 101.043L270.561 97.8704L269.552 95.9052L270.474 95.4299L273.088 100.523Z" fill="#FAF4ED"/>
<path d="M275.167 105.026L270.824 106.881C270.175 107.158 269.751 107.506 269.554 107.926C269.36 108.352 269.373 108.824 269.593 109.343C269.811 109.855 270.139 110.184 270.577 110.332C271.018 110.487 271.564 110.425 272.213 110.148L276.556 108.293L277.058 109.475L272.716 111.33C271.714 111.758 270.843 111.824 270.105 111.526C269.373 111.226 268.826 110.651 268.465 109.8C268.106 108.957 268.074 108.17 268.368 107.44C268.669 106.707 269.32 106.126 270.322 105.698L274.664 103.843L275.167 105.026Z" fill="#FAF4ED"/>
<path d="M277.017 121.278C276.255 121.533 275.536 121.6 274.862 121.477C274.197 121.36 273.608 121.054 273.095 120.56C272.584 120.074 272.19 119.417 271.914 118.591L271.073 116.068L278.616 113.538L279.458 116.061C279.734 116.888 279.814 117.649 279.698 118.346C279.592 119.048 279.308 119.646 278.848 120.141C278.389 120.643 277.779 121.022 277.017 121.278ZM272.983 118.125C273.285 119.031 273.752 119.647 274.384 119.974C275.016 120.301 275.755 120.322 276.603 120.038C277.451 119.753 278.029 119.29 278.337 118.648C278.646 118.006 278.649 117.232 278.347 116.327L277.944 115.119L272.58 116.917L272.983 118.125Z" fill="#FAF4ED"/>
<path d="M282.127 124.928L274.444 126.997L274.112 125.756L281.795 123.687L282.127 124.928Z" fill="#FAF4ED"/>
<path d="M283.988 132.495C284.134 133.217 284.096 133.903 283.874 134.554C283.654 135.211 283.271 135.768 282.727 136.223C282.191 136.684 281.54 136.992 280.774 137.147C280.009 137.302 279.286 137.271 278.606 137.056C277.936 136.847 277.368 136.483 276.904 135.963C276.448 135.45 276.147 134.832 276.002 134.11C275.855 133.381 275.892 132.688 276.112 132.03C276.341 131.378 276.723 130.822 277.259 130.361C277.802 129.898 278.457 129.59 279.222 129.435C279.988 129.28 280.707 129.311 281.379 129.527C282.059 129.743 282.626 130.107 283.082 130.62C283.54 131.141 283.842 131.766 283.988 132.495ZM282.818 132.732C282.717 132.231 282.513 131.809 282.206 131.464C281.899 131.12 281.51 130.881 281.038 130.746C280.568 130.619 280.05 130.613 279.483 130.727C278.916 130.842 278.44 131.049 278.056 131.349C277.673 131.657 277.407 132.029 277.257 132.465C277.107 132.902 277.083 133.37 277.184 133.871C277.283 134.365 277.485 134.78 277.791 135.117C278.098 135.461 278.486 135.697 278.956 135.824C279.428 135.959 279.947 135.969 280.514 135.854C281.081 135.739 281.556 135.528 281.939 135.221C282.323 134.921 282.59 134.553 282.74 134.116C282.891 133.687 282.917 133.226 282.818 132.732Z" fill="#FAF4ED"/>
<path d="M278.883 148.342C278.852 147.96 278.896 147.596 279.013 147.25C279.126 146.904 279.298 146.592 279.529 146.316C279.765 146.045 280.044 145.823 280.368 145.652C280.691 145.486 281.044 145.387 281.425 145.357C281.811 145.326 282.175 145.367 282.517 145.48C282.863 145.597 283.172 145.771 283.443 146.002C283.719 146.238 283.941 146.517 284.107 146.841C284.278 147.164 284.379 147.517 284.409 147.898C284.44 148.284 284.396 148.648 284.279 148.99C284.166 149.336 283.991 149.645 283.756 149.917C283.525 150.193 283.248 150.414 282.924 150.581C282.605 150.751 282.253 150.852 281.867 150.883C281.485 150.914 281.121 150.87 280.775 150.753C280.429 150.64 280.117 150.466 279.841 150.231C279.57 150 279.351 149.723 279.185 149.399C279.014 149.08 278.914 148.728 278.883 148.342Z" fill="#FAF4ED"/>
<path d="M286.088 168.541L278.263 168.196L278.32 166.902L284.186 167.16L278.419 164.638L278.468 163.513L284.434 161.496L278.568 161.238L278.624 159.955L286.449 160.299L286.381 161.853L280.019 164.167L286.156 166.987L286.088 168.541Z" fill="#FAF4ED"/>
<path d="M284.587 174.099L282.194 173.801L281.833 176.709L280.848 176.586L281.21 173.678L278.76 173.372L278.358 176.616L277.318 176.486L277.879 171.967L285.774 172.953L285.213 177.471L284.184 177.343L284.587 174.099Z" fill="#FAF4ED"/>
<path d="M275.571 186.106L275.821 184.846L282.331 182.202L276.573 181.054L276.823 179.794L284.615 181.347L284.365 182.607L277.832 185.247L283.613 186.399L283.363 187.659L275.571 186.106Z" fill="#FAF4ED"/>
<path d="M282.039 192.985L274.344 190.961L274.669 189.718L282.364 191.742L282.039 192.985Z" fill="#FAF4ED"/>
<path d="M271.408 200.555L271.807 199.334L278.588 197.495L273.01 195.66L273.409 194.439L280.957 196.922L280.557 198.143L273.756 199.975L279.355 201.817L278.955 203.038L271.408 200.555Z" fill="#FAF4ED"/>
<path d="M274.024 215.218C273.608 216.102 273.038 216.73 272.315 217.103C271.592 217.475 270.798 217.582 269.935 217.423L270.515 216.189C271.03 216.225 271.501 216.115 271.928 215.86C272.359 215.615 272.701 215.224 272.954 214.687C273.155 214.259 273.231 213.825 273.18 213.385C273.126 212.953 272.949 212.545 272.648 212.161C272.35 211.788 271.94 211.477 271.417 211.23C270.9 210.986 270.401 210.866 269.917 210.87C269.437 210.884 269.013 211.008 268.646 211.241C268.276 211.482 267.99 211.816 267.788 212.244C267.535 212.781 267.448 213.293 267.527 213.779C267.609 214.275 267.824 214.709 268.172 215.081L267.591 216.315C266.92 215.748 266.497 215.067 266.324 214.27C266.158 213.476 266.283 212.638 266.698 211.754C267.018 211.074 267.454 210.545 268.006 210.166C268.565 209.79 269.187 209.59 269.871 209.564C270.563 209.542 271.265 209.7 271.978 210.037C272.691 210.374 273.256 210.816 273.672 211.361C274.094 211.91 274.339 212.52 274.405 213.192C274.471 213.863 274.344 214.538 274.024 215.218Z" fill="#FAF4ED"/>
<path d="M261.397 221.99L265.137 221.853L265.59 221.061L262.835 219.476L263.473 218.361L270.371 222.327L268.977 224.763C268.526 225.552 267.992 226.038 267.377 226.222C266.757 226.412 266.132 226.325 265.5 225.962C264.959 225.651 264.604 225.243 264.434 224.738C264.26 224.239 264.289 223.675 264.52 223.045L260.68 223.243L261.397 221.99ZM266.382 221.516L265.676 222.748C265.161 223.648 265.301 224.327 266.096 224.783C266.474 225.001 266.83 225.058 267.166 224.956C267.504 224.865 267.805 224.587 268.07 224.124L268.775 222.892L266.382 221.516Z" fill="#FAF4ED"/>
<path d="M263.916 231.042L261.912 229.701L260.288 232.14L259.464 231.588L261.088 229.149L259.037 227.777L257.225 230.497L256.354 229.914L258.878 226.124L265.49 230.55L262.966 234.339L262.105 233.763L263.916 231.042Z" fill="#FAF4ED"/>
<path d="M252.89 237.456L254.945 234.8L253.956 233.26L254.797 232.173L259.188 239.298L258.285 240.465L250.315 237.967L251.156 236.879L252.89 237.456ZM253.893 237.78L257.636 239.019L255.507 235.694L253.893 237.78Z" fill="#FAF4ED"/>
<path d="M250.833 249.416L250.062 248.722L251.544 247.069L246.403 242.438L247.268 241.473L252.409 246.104L253.884 244.459L254.654 245.153L250.833 249.416Z" fill="#FAF4ED"/>
<path d="M247.435 252.887L241.812 247.257L242.719 246.347L248.342 251.977L247.435 252.887Z" fill="#FAF4ED"/>
<path d="M243.939 256.269L237.862 252.87L240.515 259.322L239.472 260.253L236.335 252.389L237.563 251.294L244.981 255.339L243.939 256.269Z" fill="#FAF4ED"/>
<path d="M235.062 262.445L233.593 260.532L231.274 262.322L230.669 261.536L232.989 259.745L231.486 257.788L228.898 259.785L228.26 258.954L231.864 256.172L236.711 262.482L233.107 265.264L232.475 264.442L235.062 262.445Z" fill="#FAF4ED"/>
<path d="M218.159 268.184C217.955 267.85 217.845 267.49 217.829 267.103C217.817 266.723 217.922 266.346 218.143 265.973C218.364 265.599 218.711 265.267 219.185 264.976C219.646 264.694 220.108 264.52 220.571 264.457C221.038 264.4 221.47 264.452 221.868 264.613C222.266 264.775 222.598 265.038 222.865 265.403L221.693 266.122C221.481 265.847 221.201 265.67 220.854 265.592C220.501 265.518 220.139 265.594 219.767 265.822C219.434 266.027 219.233 266.273 219.163 266.563C219.087 266.857 219.135 267.144 219.307 267.427C219.456 267.67 219.644 267.828 219.873 267.899C220.105 267.977 220.348 268 220.601 267.968C220.855 267.936 221.19 267.872 221.606 267.775C222.111 267.651 222.539 267.573 222.89 267.543C223.235 267.516 223.579 267.575 223.921 267.717C224.263 267.86 224.561 268.14 224.816 268.556C225.039 268.922 225.145 269.298 225.134 269.683C225.123 270.069 224.996 270.438 224.753 270.79C224.514 271.148 224.176 271.461 223.741 271.728C223.049 272.152 222.4 272.321 221.793 272.235C221.179 272.153 220.679 271.86 220.293 271.357L221.475 270.632C221.676 270.861 221.931 271.004 222.239 271.062C222.545 271.13 222.867 271.06 223.207 270.852C223.514 270.664 223.712 270.432 223.8 270.158C223.891 269.89 223.847 269.609 223.667 269.314C223.526 269.083 223.345 268.93 223.123 268.854C222.905 268.785 222.672 268.765 222.425 268.793C222.176 268.831 221.846 268.897 221.436 268.99C220.925 269.118 220.492 269.194 220.137 269.218C219.779 269.252 219.427 269.195 219.081 269.046C218.728 268.901 218.421 268.614 218.159 268.184Z" fill="#FAF4ED"/>
<path d="M212.891 277.669L212.413 276.749L214.382 275.722L211.195 269.58L212.344 268.981L215.531 275.123L217.49 274.102L217.967 275.022L212.891 277.669Z" fill="#FAF4ED"/>
<path d="M208.412 279.771L206.546 275.434C206.267 274.785 205.918 274.363 205.498 274.168C205.072 273.975 204.6 273.991 204.083 274.215C203.573 274.435 203.245 274.765 203.098 275.205C202.945 275.648 203.008 276.194 203.288 276.842L205.154 281.18L203.975 281.69L202.108 277.352C201.678 276.351 201.61 275.48 201.904 274.739C202.202 274.005 202.775 273.454 203.623 273.088C204.464 272.724 205.25 272.687 205.98 272.977C206.713 273.274 207.295 273.923 207.725 274.924L209.592 279.261L208.412 279.771Z" fill="#FAF4ED"/>
<path d="M192.2 281.709C191.942 280.948 191.873 280.229 191.993 279.553C192.109 278.887 192.412 278.296 192.904 277.779C193.388 277.265 194.043 276.868 194.868 276.587L197.386 275.73L199.938 283.267L197.42 284.124C196.595 284.404 195.834 284.488 195.138 284.376C194.436 284.274 193.838 283.993 193.342 283.535C192.838 283.079 192.458 282.471 192.2 281.709ZM195.336 277.654C194.433 277.961 193.819 278.432 193.494 279.066C193.17 279.701 193.151 280.441 193.438 281.288C193.724 282.135 194.189 282.711 194.832 283.016C195.474 283.321 196.247 283.32 197.151 283.013L198.356 282.602L196.542 277.244L195.336 277.654Z" fill="#FAF4ED"/>
<path d="M188.588 286.838L186.495 279.162L187.734 278.822L189.827 286.498L188.588 286.838Z" fill="#FAF4ED"/>
<path d="M181.041 288.738C180.32 288.887 179.634 288.853 178.983 288.635C178.325 288.418 177.767 288.038 177.311 287.496C176.848 286.962 176.538 286.313 176.38 285.548C176.223 284.782 176.25 284.059 176.463 283.378C176.67 282.707 177.032 282.137 177.55 281.669C178.061 281.21 178.678 280.906 179.399 280.757C180.127 280.607 180.82 280.64 181.479 280.857C182.131 281.082 182.689 281.462 183.151 281.995C183.615 282.536 183.926 283.189 184.084 283.954C184.241 284.72 184.213 285.439 183.999 286.113C183.786 286.793 183.424 287.363 182.912 287.822C182.393 288.282 181.77 288.588 181.041 288.738ZM180.8 287.568C181.301 287.465 181.722 287.259 182.065 286.95C182.408 286.641 182.646 286.25 182.779 285.778C182.905 285.307 182.909 284.788 182.793 284.222C182.676 283.655 182.467 283.18 182.166 282.797C181.857 282.416 181.484 282.152 181.048 282.004C180.611 281.857 180.142 281.835 179.642 281.938C179.149 282.04 178.734 282.245 178.399 282.552C178.056 282.861 177.822 283.251 177.696 283.722C177.563 284.194 177.555 284.714 177.672 285.281C177.788 285.847 178.001 286.321 178.309 286.702C178.611 287.085 178.98 287.35 179.417 287.498C179.846 287.647 180.307 287.67 180.8 287.568Z" fill="#FAF4ED"/>
<path d="M165.214 283.707C165.595 283.675 165.959 283.716 166.306 283.832C166.653 283.943 166.965 284.114 167.241 284.343C167.514 284.578 167.737 284.856 167.909 285.179C168.077 285.502 168.177 285.854 168.209 286.235C168.241 286.621 168.202 286.985 168.09 287.327C167.974 287.674 167.801 287.984 167.571 288.256C167.337 288.534 167.058 288.756 166.735 288.924C166.413 289.097 166.061 289.199 165.679 289.231C165.293 289.264 164.929 289.222 164.587 289.106C164.24 288.995 163.931 288.822 163.658 288.587C163.381 288.358 163.159 288.082 162.991 287.759C162.819 287.441 162.717 287.089 162.684 286.703C162.652 286.322 162.694 285.957 162.81 285.61C162.921 285.264 163.094 284.952 163.328 284.674C163.558 284.402 163.835 284.182 164.158 284.014C164.476 283.842 164.828 283.74 165.214 283.707Z" fill="#FAF4ED"/>
</g>
<defs>
<clipPath id="clip0">
<rect width="310" height="317" fill="white"/>
</clipPath>
</defs>
</svg>
